<?xml version="1.0" encoding="UTF-8"?>
<svg id="Layer_2" data-name="Layer 2" xmlns="http://www.w3.org/2000/svg" viewBox="0 0 906.2 265.73">
  <defs>
    <style>
      .cls-1 {
        fill: #266dd3;
      }

      .cls-2 {
        fill: #c69c6d;
      }

      .cls-3 {
        fill: #f59e0b;
      }
    </style>
  </defs>
  <g id="Layer_1-2" data-name="Layer 1">
    <g>
      <path class="cls-3" d="m166.42,147.41V20.05c0-11.07-8.98-20.05-20.05-20.05h-11.23c-11.07,0-20.05,8.98-20.05,20.05v127.42L8.77,219.82c-9.15,6.23-11.53,18.7-5.3,27.85l6.32,9.28c6.23,9.15,18.7,11.53,27.85,5.3l100.5-68.39,136.06,28.91c10.83,2.3,21.48-4.61,23.78-15.44l2.33-10.98c2.3-10.83-4.61-21.48-15.44-23.78l-118.45-25.16Zm-41.17-6.84l.38-1.82,1.74.37-2.13,1.45Z"/>
      <polygon class="cls-2" points="127.38 139.11 125.25 140.56 125.63 138.74 127.38 139.11"/>
      <polygon class="cls-2" points="127.38 139.11 125.25 140.56 125.63 138.74 127.38 139.11"/>
      <polygon class="cls-1" points="192.08 49.72 192.08 123.5 275.88 140.34 192.08 49.72"/>
      <path class="cls-3" d="m318.39,223.4c1.44-16.72,2.5-31.13,3.18-43.24,1.02-17.31,2.16-41.79,3.43-73.44.85-21.66,1.27-37.02,1.27-46.06v-2.45c0-5.19,4.25-9.38,9.44-9.31s9.23.11,11.44.11,8.79-.08,19.72-.26l-4.01,69.09-3.49,82.78-.23,13.5c-.09,5.13-4.3,9.22-9.43,9.15l-10.52-.14c-2.38,0-9.32.09-20.81.26Zm46.44-92.44l29.04-35.67,26.48-33.62c1.45-1.91,3.67-4.92,6.65-9.02,1.77-2.44,4.62-3.87,7.63-3.84l18.2.2c.94,0,8.27-.08,22-.26l-58.89,69.16-9.99,12.4,8.07,11.52c1.2,1.62,9.65,12.72,25.36,33.29l37.27,48.27-22.76-.26c-3.43,0-10.02.06-19.76.19-3.22.04-6.23-1.58-7.97-4.29l-5.4-8.44c-1.54-2.47-4.27-6.53-8.19-12.16l-34.81-49.67-12.93-17.8Z"/>
      <path class="cls-3" d="m613.34,96.06c.08-.94.15-1.87.23-2.78-6.32.17-12,.26-17.04.26-2.65,0-6.02-.03-10.1-.09-5.1-.08-9.31,3.97-9.44,9.07-.28,11.08-.7,22.03-1.26,32.85-.51,11.43-1.06,19.49-1.66,24.18-.77,6.66-1.88,11.86-3.32,15.61-1.96,5.2-4.37,9.34-7.23,12.41-2.85,3.07-6.28,5.46-10.29,7.17-4.43,1.87-9.12,2.81-14.06,2.81-5.2,0-10.08-1.06-14.63-3.19-4.56-2.14-7.76-5.22-9.59-9.28-1.83-4.05-2.75-9.15-2.75-15.28,0-1.37.06-3.61.19-6.72.13-3.11.33-6.93.58-11.45l4.25-58.34c-6.9.17-12.78.26-17.63.26-2.64,0-5.86-.03-9.64-.09-5.14-.08-9.38,4.02-9.45,9.16-.02,1.33-.04,2.57-.07,3.72l-1.94,43.5-2.08,33.01v2.68c0,10.5,2.07,18.55,6.21,24.18,4.13,5.63,9.74,9.83,16.81,12.6,7.08,2.78,15.4,4.16,24.94,4.16,4.95,0,9.62-.41,14.01-1.22,4.39-.81,8.29-1.83,11.7-3.07,3.41-1.23,6.57-2.9,9.47-4.99s5.24-4.22,7.03-6.4,3.88-5.05,6.27-8.63l-.23,21.24c6.4-.17,12.11-.26,17.15-.26.6,0,1.24,0,1.91,0l-3.76-37.62,8.95,3.65c3.93,1.6,7.58,2.97,10.9,4.09.09-3.05.19-6.05.3-8.96.31-8.6.79-18.87,1.45-30.82-1.06-1.18-2.05-2.36-2.97-3.55-2.75-3.58-4.86-7.42-6.3-11.43-1.45-4.07-2.19-8.27-2.19-12.52,0-7.38,2.25-14.45,6.69-21.04,2.32-3.43,5.18-6.41,8.57-8.88Z"/>
      <path class="cls-3" d="m682.07,171.09c-2.56-3.28-5.82-6.55-9.79-9.79-3.97-3.23-8.59-6.86-13.88-10.87-5.29-4.01-8.77-6.69-10.43-8.06-1.66-1.36-3.14-2.82-4.42-4.35-1.28-1.54-2.18-3.01-2.69-4.41-.51-1.41-.77-2.84-.77-4.29,0-2.47.81-4.71,2.43-6.72,1.62-2,4.29-3.49,7.99-4.47,3.71-.98,8.04-1.47,12.99-1.47,9.13,0,18.64,2.01,28.53,6.02l-1.66-26.74c-14.59-2.65-27.46-3.97-38.64-3.97-9.81,0-18.34,1.3-25.59,3.9-5.47,1.97-9.96,4.79-13.46,8.48-1.14,1.19-2.17,2.48-3.1,3.86-3.8,5.63-5.7,11.55-5.7,17.78,0,3.58.62,7.1,1.86,10.55,1.02,2.87,2.46,5.63,4.28,8.27.37.54.75,1.06,1.15,1.59,2.39,3.11,5.34,6.16,8.83,9.15s8.57,7.08,15.23,12.28l6.91,5.5c2.39,1.79,4.22,3.26,5.5,4.42,1.28,1.15,2.28,2.18,3,3.07.73.9,1.37,1.86,1.92,2.88s.94,2,1.15,2.94c.22.94.32,1.97.32,3.07,0,2.47-.81,4.84-2.43,7.1-1.62,2.26-4.09,3.96-7.42,5.11s-7.42,1.73-12.28,1.73-10.19-.66-15.99-1.98c-2.53-.58-5.3-1.35-8.31-2.32-3.9-1.26-8.21-2.85-12.92-4.78l2.82,28.15c.74.18,1.49.36,2.23.53,7.52,1.76,14.63,3.01,21.31,3.75,7.33.81,13.56,1.22,18.68,1.22,9.81,0,18.68-1.54,26.61-4.61,7.94-3.07,13.86-7.33,17.79-12.79,3.92-5.46,5.88-11.39,5.88-17.78,0-3.84-.68-7.63-2.05-11.39-1.36-3.75-3.32-7.27-5.88-10.55Z"/>
      <path class="cls-3" d="m706.53,223.4l3.05-41.58,3.05-59.49,1.56-64.31c.12-5.1,4.34-9.16,9.44-9.08,3.56.05,6.72.08,9.48.08,6.49,0,12.68-.08,18.57-.26l-2.31,30.45c-.51,7.51-1.2,19.58-2.05,36.21,2.73-4.09,5.01-7.16,6.84-9.21,1.84-2.05,3.88-3.94,6.14-5.69,2.26-1.75,4.58-3.22,6.97-4.41,2.39-1.19,5.18-2.26,8.38-3.2,3.2-.94,6.76-1.66,10.68-2.18,3.92-.51,7.93-.77,12.03-.77,7.08,0,13.88.81,20.41,2.43,6.53,1.62,12.16,4.35,16.89,8.19,4.73,3.84,7.98,8.34,9.73,13.5,1.75,5.16,2.62,10.56,2.62,16.18,0,3.67-.22,9.38-.65,17.14l-3.1,55.91c-.15,3.3-.25,6.88-.32,10.75-.08,5.13-4.32,9.22-9.45,9.15-3.18-.05-6.15-.07-8.9-.07-5.71,0-12.23.09-19.55.26,1.18-10.06,2.34-23.8,3.48-41.2,1.14-17.4,1.71-29.77,1.71-37.1,0-6.74-1.09-12-3.26-15.8-2.17-3.79-5.37-6.61-9.58-8.44-4.21-1.83-8.83-2.75-13.86-2.75-6.47,0-12.18,1.15-17.11,3.45-4.77,2.22-8.77,5.55-12.01,9.98-2.64,3.67-4.85,8.91-6.64,15.74-1.87,7.16-3.23,18.25-4.09,33.26-.37,6.15-.77,17.35-1.2,33.6-.13,5.1-4.35,9.14-9.46,9.07-2.98-.04-5.71-.07-8.2-.07-4.61,0-11.06.09-19.34.26Z"/>
      <path class="cls-3" d="m868.94,87.62c-.26,16.88-.72,34.7-1.37,53.46-.65,18.76-1.41,35.33-2.28,49.69-.52,9.07-1.43,20.33-2.73,33.8,8.97-.18,15.67-.27,20.11-.27,2.62,0,5.72.03,9.3.08,5.17.08,9.4-4.28,9.44-9.72.07-9.22.22-20.42.45-33.59.33-18.31.84-34.56,1.54-48.74.7-14.18,1.63-29.08,2.78-44.7-8.56.18-14.75.27-18.57.27-4.15,0-10.39-.09-18.69-.27Z"/>
      <path class="cls-1" d="m885.51,49.45h20.65v28.17h-36.65v-12.17c0-8.83,7.17-16,16-16Z"/>
    </g>
  </g>
</svg>