<svg width="100" height="30" viewBox="0 0 100 30" fill="none" xmlns="http://www.w3.org/2000/svg">
<path d="M18.3645 16.2668V2.21254C18.3645 0.990951 17.3735 0 16.152 0H14.9127C13.6911 0 12.7002 0.990951 12.7002 2.21254V16.2734L0.967667 24.2573C-0.0420435 24.9448 -0.304679 26.3209 0.382807 27.3306L1.08023 28.3547C1.76771 29.3644 3.14379 29.627 4.1535 28.9395L15.2438 21.3926L30.2581 24.5829C31.4532 24.8367 32.6285 24.0742 32.8823 22.8791L33.1394 21.6674C33.3932 20.4723 32.6307 19.2971 31.4356 19.0433L18.3645 16.2668ZM13.8213 15.512L13.8633 15.3112L14.0553 15.352L13.8202 15.512H13.8213Z" fill="#266DD3"/>
<path d="M14.0565 15.3509L13.8215 15.5109L13.8634 15.3101L14.0565 15.3509Z" fill="#C69C6D"/>
<path d="M14.0565 15.3509L13.8215 15.5109L13.8634 15.3101L14.0565 15.3509Z" fill="#C69C6D"/>
<path d="M21.1962 5.48682V13.6285L30.4436 15.4868L21.1962 5.48682Z" fill="#F59E0B"/>
<path d="M35.1346 24.6527C35.2935 22.8076 35.4105 21.2174 35.4855 19.8811C35.5981 17.9709 35.7239 15.2695 35.8641 11.7769C35.9579 9.38672 36.0042 7.69173 36.0042 6.69416V6.4238C36.0042 5.85108 36.4732 5.38871 37.0459 5.39644C37.6186 5.40416 38.0644 5.40857 38.3083 5.40857C38.5522 5.40857 39.2783 5.39975 40.4844 5.37988L40.0419 13.004L39.6568 22.1389L39.6314 23.6286C39.6215 24.1947 39.1569 24.646 38.5908 24.6383L37.4299 24.6229C37.1673 24.6229 36.4015 24.6328 35.1335 24.6516L35.1346 24.6527ZM40.2593 14.4518L43.4639 10.5156L46.386 6.80562C46.546 6.59485 46.791 6.26269 47.1198 5.81025C47.3152 5.541 47.6297 5.38319 47.9618 5.3865L49.9702 5.40857C50.0739 5.40857 50.8828 5.39975 52.3979 5.37988L45.8994 13.0118L44.797 14.3801L45.6875 15.6513C45.8199 15.8301 46.7524 17.055 48.486 19.3249L52.5988 24.6516L50.0872 24.6229C49.7087 24.6229 48.9815 24.6295 47.9066 24.6438C47.5513 24.6483 47.2192 24.4695 47.0272 24.1704L46.4313 23.2391C46.2613 22.9665 45.9601 22.5185 45.5275 21.8972L41.6862 16.4161L40.2593 14.4518Z" fill="#266DD3"/>
<path d="M67.6826 10.6002C67.6915 10.4965 67.6992 10.3939 67.708 10.2935C67.0106 10.3122 66.3838 10.3221 65.8276 10.3221C65.5352 10.3221 65.1633 10.3188 64.7131 10.3122C64.1503 10.3034 63.6857 10.7503 63.6714 11.3131C63.6405 12.5358 63.5941 13.7441 63.5323 14.9381C63.4761 16.1994 63.4154 17.0889 63.3492 17.6064C63.2642 18.3413 63.1417 18.9152 62.9828 19.329C62.7665 19.9028 62.5006 20.3597 62.185 20.6984C61.8705 21.0372 61.4919 21.301 61.0494 21.4897C60.5606 21.696 60.043 21.7997 59.4979 21.7997C58.9241 21.7997 58.3856 21.6828 57.8835 21.4477C57.3803 21.2116 57.0271 20.8717 56.8252 20.4237C56.6233 19.9768 56.5217 19.414 56.5217 18.7375C56.5217 18.5863 56.5284 18.3391 56.5427 17.996C56.5571 17.6528 56.5791 17.2312 56.6067 16.7324L57.0757 10.2946C56.3143 10.3133 55.6654 10.3233 55.1302 10.3233C54.8389 10.3233 54.4836 10.3199 54.0664 10.3133C53.4992 10.3045 53.0313 10.7569 53.0236 11.3241C53.0214 11.4709 53.0192 11.6077 53.0159 11.7346L52.8018 16.5349L52.5723 20.1776V20.4733C52.5723 21.632 52.8007 22.5203 53.2576 23.1416C53.7133 23.7629 54.3324 24.2264 55.1126 24.532C55.8938 24.8388 56.812 24.9911 57.8647 24.9911C58.4109 24.9911 58.9263 24.9459 59.4107 24.8565C59.8952 24.7671 60.3255 24.6545 60.7018 24.5177C61.0781 24.382 61.4268 24.1977 61.7469 23.967C62.0669 23.7364 62.3251 23.5014 62.5226 23.2608C62.7202 23.0202 62.9508 22.7035 63.2145 22.3085L63.1891 24.6523C63.8954 24.6336 64.5255 24.6236 65.0817 24.6236C65.1479 24.6236 65.2185 24.6236 65.2924 24.6236L64.8775 20.4722L65.8652 20.875C66.2988 21.0516 66.7016 21.2027 67.068 21.3263C67.0779 20.9898 67.0889 20.6587 67.1011 20.3376C67.1353 19.3886 67.1883 18.2553 67.2611 16.9366C67.1441 16.8064 67.0349 16.6762 66.9333 16.5448C66.6299 16.1498 66.397 15.726 66.2381 15.2835C66.0781 14.8344 65.9965 14.3709 65.9965 13.9019C65.9965 13.0875 66.2448 12.3074 66.7347 11.5801C66.9907 11.2016 67.3063 10.8728 67.6804 10.6002H67.6826Z" fill="#266DD3"/>
<path d="M75.267 18.8799C74.9845 18.5179 74.6248 18.1571 74.1867 17.7996C73.7486 17.4431 73.2388 17.0425 72.655 16.6C72.0713 16.1575 71.6872 15.8618 71.5041 15.7106C71.3209 15.5605 71.1576 15.3994 71.0163 15.2306C70.8751 15.0606 70.7757 14.8984 70.7195 14.7439C70.6632 14.5883 70.6345 14.4305 70.6345 14.2705C70.6345 13.998 70.7239 13.7508 70.9026 13.529C71.0814 13.3083 71.3761 13.1438 71.7844 13.0357C72.1938 12.9276 72.6716 12.8735 73.2178 12.8735C74.2253 12.8735 75.2748 13.0953 76.3661 13.5378L76.1829 10.587C74.5729 10.2946 73.1527 10.1489 71.919 10.1489C70.8364 10.1489 69.8951 10.2924 69.0951 10.5793C68.4915 10.7967 67.996 11.1079 67.6098 11.5151C67.484 11.6464 67.3703 11.7887 67.2677 11.941C66.8484 12.5623 66.6387 13.2156 66.6387 13.9031C66.6387 14.2981 66.7071 14.6866 66.8439 15.0673C66.9565 15.384 67.1154 15.6885 67.3162 15.9799C67.3571 16.0395 67.399 16.0968 67.4431 16.1553C67.7069 16.4985 68.0324 16.8351 68.4175 17.165C68.8027 17.495 69.3633 17.9463 70.0982 18.5201L70.8607 19.1271C71.1245 19.3246 71.3264 19.4868 71.4676 19.6148C71.6089 19.7417 71.7192 19.8554 71.7987 19.9536C71.8793 20.0529 71.9499 20.1589 72.0106 20.2714C72.0713 20.384 72.1143 20.4921 72.1375 20.5958C72.1618 20.6996 72.1728 20.8132 72.1728 20.9346C72.1728 21.2072 72.0834 21.4687 71.9046 21.7181C71.7259 21.9675 71.4533 22.1551 71.0858 22.282C70.7184 22.4089 70.267 22.4729 69.7307 22.4729C69.1944 22.4729 68.6062 22.4001 67.9662 22.2544C67.687 22.1904 67.3813 22.1054 67.0492 21.9984C66.6188 21.8594 66.1432 21.6839 65.6235 21.4709L65.9346 24.5773C66.0163 24.5972 66.0991 24.617 66.1807 24.6358C67.0106 24.83 67.7952 24.9679 68.5323 25.0496C69.3412 25.139 70.0287 25.1842 70.5937 25.1842C71.6762 25.1842 72.655 25.0143 73.5301 24.6755C74.4063 24.3367 75.0596 23.8666 75.4932 23.2641C75.9258 22.6616 76.1421 22.0072 76.1421 21.3021C76.1421 20.8783 76.0671 20.4601 75.9159 20.0452C75.7658 19.6314 75.5495 19.2429 75.267 18.881V18.8799Z" fill="#266DD3"/>
<path d="M77.9662 24.6525L78.3028 20.0642L78.6394 13.4994L78.8115 6.40271C78.8248 5.83992 79.2904 5.39189 79.8532 5.40072C80.2461 5.40624 80.5948 5.40955 80.8994 5.40955C81.6155 5.40955 82.2986 5.40072 82.9486 5.38086L82.6937 8.74104C82.6374 9.56978 82.5612 10.9017 82.4674 12.7369C82.7687 12.2855 83.0203 11.9467 83.2222 11.7205C83.4253 11.4943 83.6504 11.2857 83.8998 11.0926C84.1492 10.8995 84.4052 10.7373 84.6689 10.606C84.9327 10.4747 85.2406 10.3566 85.5937 10.2529C85.9468 10.1491 86.3397 10.0697 86.7722 10.0123C87.2048 9.95601 87.6473 9.92732 88.0998 9.92732C88.881 9.92732 89.6314 10.0167 90.352 10.1955C91.0726 10.3742 91.6939 10.6755 92.2158 11.0992C92.7378 11.523 93.0964 12.0196 93.2896 12.589C93.4827 13.1584 93.5787 13.7543 93.5787 14.3745C93.5787 14.7794 93.5544 15.4095 93.5069 16.2659L93.1649 22.4356C93.1483 22.7998 93.1373 23.1948 93.1295 23.6219C93.1207 24.188 92.6528 24.6393 92.0867 24.6316C91.7358 24.6261 91.4081 24.6239 91.1046 24.6239C90.4745 24.6239 89.755 24.6338 88.9472 24.6525C89.0775 23.5424 89.2055 22.0262 89.3313 20.1061C89.4571 18.186 89.52 16.8209 89.52 16.0121C89.52 15.2683 89.3997 14.6879 89.1602 14.2685C88.9208 13.8503 88.5676 13.5391 88.1031 13.3372C87.6385 13.1352 87.1287 13.0337 86.5736 13.0337C85.8596 13.0337 85.2295 13.1606 84.6855 13.4144C84.1591 13.6594 83.7177 14.0269 83.3602 14.5157C83.0689 14.9207 82.825 15.4989 82.6275 16.2526C82.4211 17.0427 82.271 18.2665 82.1761 19.9229C82.1353 20.6016 82.0911 21.8375 82.0437 23.6307C82.0293 24.1935 81.5637 24.6393 80.9998 24.6316C80.6709 24.6272 80.3697 24.6239 80.0949 24.6239C79.5862 24.6239 78.8744 24.6338 77.9607 24.6525H77.9662Z" fill="#266DD3"/>
<path d="M95.8883 9.66895C95.8596 11.5317 95.8089 13.4981 95.7371 15.5683C95.6654 17.6385 95.5815 19.467 95.4855 21.0516C95.4282 22.0525 95.3277 23.2951 95.1843 24.7815C96.1741 24.7616 96.9135 24.7517 97.4034 24.7517C97.6926 24.7517 98.0346 24.755 98.4297 24.7605C99.0002 24.7694 99.467 24.2882 99.4714 23.6879C99.4791 22.6705 99.4957 21.4346 99.5211 19.9812C99.5575 17.9607 99.6138 16.1675 99.691 14.6027C99.7683 13.038 99.8709 11.3937 99.9978 9.67005C99.0532 9.68991 98.3701 9.69984 97.9486 9.69984C97.4906 9.69984 96.802 9.68991 95.8861 9.67005L95.8883 9.66895Z" fill="#266DD3"/>
<path d="M97.7168 5.45703H99.9956V8.56562H95.9512V7.22265C95.9512 6.24825 96.7424 5.45703 97.7168 5.45703Z" fill="#F59E0B"/>
</svg>
