<svg width="175" height="175" viewBox="0 0 175 175" fill="none" xmlns="http://www.w3.org/2000/svg">
<path d="M146.973 130.457C146.973 133.358 145.82 136.14 143.769 138.191C141.718 140.242 138.936 141.395 136.035 141.395H23.9258C21.025 141.395 18.243 140.242 16.1918 138.191C14.1406 136.14 12.9883 133.358 12.9883 130.457C12.9883 127.557 14.1406 124.775 16.1918 122.723C18.243 120.672 21.025 119.52 23.9258 119.52H28.0273V75.7698C28.0433 64.8746 31.4841 54.2602 37.8631 45.4277C44.2421 36.5952 53.2365 29.9916 63.5742 26.5511C74.2245 23.0064 85.7364 23.0064 96.3867 26.5511C97.2891 26.8245 98.1641 27.18 99.1211 27.5081C91.61 32.255 85.8435 39.3126 82.6892 47.6192C79.5348 55.9258 79.1632 65.0321 81.6303 73.5681C84.0973 82.1041 89.2696 89.6081 96.3689 94.9512C103.468 100.294 112.111 103.188 120.996 103.196C124.694 103.2 128.374 102.694 131.934 101.692V119.602H136.035C138.922 119.602 141.691 120.743 143.74 122.776C145.789 124.81 146.951 127.571 146.973 130.457Z" fill="#BED7FF"/>
<path d="M96.3867 21.082V26.5508C85.7364 23.0061 74.2245 23.0061 63.5742 26.5508V21.082C63.5742 16.7308 65.3027 12.5578 68.3795 9.48106C71.4563 6.40429 75.6293 4.67578 79.9805 4.67578C84.3317 4.67578 88.5047 6.40429 91.5814 9.48106C94.6582 12.5578 96.3867 16.7308 96.3867 21.082Z" fill="#AACAFC"/>
<path d="M107.324 141.395C107.324 148.647 104.443 155.602 99.3154 160.729C94.1875 165.857 87.2325 168.738 79.9805 168.738C72.7285 168.738 65.7735 165.857 60.6455 160.729C55.5176 155.602 52.6367 148.647 52.6367 141.395H107.324Z" fill="#266DD3"/>
<path d="M162.012 62.0977C162.008 71.0663 159.064 79.7864 153.632 86.9226C148.199 94.0588 140.577 99.2178 131.934 101.609C128.374 102.612 124.694 103.118 120.996 103.113C112.884 103.113 104.954 100.708 98.2091 96.2009C91.4641 91.6941 86.207 85.2883 83.1026 77.7937C79.9982 70.299 79.186 62.0522 80.7686 54.0959C82.3512 46.1397 86.2575 38.8314 91.9937 33.0952C97.7298 27.3591 105.038 23.4528 112.994 21.8702C120.951 20.2876 129.197 21.0998 136.692 24.2042C144.187 27.3086 150.593 32.5656 155.099 39.3106C159.606 46.0556 162.012 53.9855 162.012 62.0977Z" fill="#E9F0FB"/>
<path d="M126.465 32.8125H115.527V62.8906C115.525 63.9969 115.858 65.0779 116.483 65.9908C117.108 66.9037 117.995 67.6056 119.027 68.0039L140.219 76.207L144.156 65.9805L126.465 59.1445V32.8125Z" fill="#F59E0B"/>
</svg>
